<svg width="512" height="512" viewBox="0 0 512 512" fill="none" xmlns="http://www.w3.org/2000/svg">
<g clip-path="url(#clip0_1003_2)">
<rect width="512" height="512" fill="url(#paint0_linear_1003_2)"/>
<path fill-rule="evenodd" clip-rule="evenodd" d="M0.000976562 0H512.001V512H0.000976562V0Z" fill="white"/>
<path d="M512.001 512H0V-0.00126892H512.001V512Z" fill="#F3F0F3"/>
<path d="M108.646 311.26C107.584 310.729 106.058 310.331 104.067 310.066C102.208 309.8 100.615 309.402 99.288 308.871C96.6332 307.544 94.7084 305.486 93.5138 302.699C92.4518 299.911 91.9209 296.659 91.9209 292.942C91.9209 287.765 92.7173 281.925 94.3102 275.42C96.0358 268.916 98.1597 262.345 100.682 255.708C103.337 249.071 105.991 242.833 108.646 236.992C111.434 231.019 113.889 226.041 116.013 222.059C118.137 217.944 119.597 215.222 120.394 213.895C122.916 210.046 125.836 207.391 129.155 205.931C132.606 204.338 136.389 203.541 140.504 203.541C149.398 203.541 153.181 204.338 151.853 205.931C149.066 209.116 146.278 213.165 143.491 218.076C140.703 222.855 138.048 227.766 135.526 232.811C133.137 237.855 131.013 242.368 129.155 246.35C128.225 248.076 127.363 249.868 126.566 251.726C125.77 253.585 124.973 255.443 124.177 257.301C124.575 257.699 125.77 258.031 127.761 258.297C129.885 258.43 131.478 258.496 132.54 258.496C135.593 258.496 138.977 256.837 142.694 253.518C146.544 250.2 150.128 245.952 153.446 240.775C156.897 235.465 159.685 229.89 161.809 224.05C164.065 218.209 165.194 212.767 165.194 207.723C165.194 202.678 163.8 198.563 161.012 195.378C158.225 192.059 153.513 190.4 146.876 190.4C142.495 190.4 137.451 191.13 131.743 192.59C126.168 194.05 120.659 196.24 115.217 199.161C109.774 202.081 105.062 205.798 101.08 210.311C97.0978 214.691 94.5093 219.935 93.3146 226.041C92.7837 225.908 91.4563 225.576 89.3324 225.045C87.2086 224.382 85.1511 223.386 83.16 222.059C81.3016 220.598 80.3724 218.74 80.3724 216.483C80.3724 209.714 83.3591 203.939 89.3324 199.161C95.3058 194.382 103.469 190.732 113.823 188.21C124.177 185.555 135.858 184.227 148.867 184.227C162.273 184.227 172.163 186.816 178.534 191.993C184.906 197.037 188.092 203.475 188.092 211.307C188.092 217.678 186.167 224.315 182.317 231.218C178.601 238.12 173.49 244.359 166.986 249.934C160.614 255.509 153.38 259.558 145.283 262.08C143.557 262.611 141.035 263.142 137.716 263.673C134.531 264.204 131.544 264.469 128.756 264.469C127.164 264.469 125.703 264.337 124.376 264.071C123.181 263.806 122.318 263.407 121.788 262.876C118.204 271.505 115.217 279.602 112.828 287.168C110.438 294.734 109.244 300.575 109.244 304.69C109.244 306.814 109.642 308.406 110.438 309.468C110.704 309.734 110.836 310.132 110.836 310.663C110.836 311.592 110.106 311.791 108.646 311.26ZM202.026 307.875C193.531 307.875 186.894 306.482 182.115 303.694C177.336 300.907 174.947 295.531 174.947 287.566C174.947 281.991 175.81 276.15 177.536 270.044C179.394 263.806 181.982 257.766 185.301 251.925C188.619 246.085 192.535 240.775 197.048 235.996C201.562 231.218 206.539 227.435 211.982 224.647C217.424 221.727 223.198 220.267 229.304 220.267C233.287 220.267 237.07 220.598 240.654 221.262C244.238 221.926 247.158 223.452 249.415 225.842C251.671 228.098 252.8 231.682 252.8 236.594C252.8 241.771 251.406 248.474 248.618 256.704C245.831 264.934 242.048 272.965 237.269 280.796C237.003 281.858 236.871 282.92 236.871 283.982C236.871 285.442 237.136 286.902 237.667 288.363C238.331 289.823 239.459 290.553 241.052 290.553C243.176 290.553 245.366 289.093 247.623 286.172C250.012 282.854 252.468 278.872 254.99 274.226C257.512 269.58 259.437 265.797 260.764 262.876C261.029 262.08 261.627 261.682 262.556 261.682C263.485 261.682 264.282 262.08 264.945 262.876C265.742 263.673 265.808 264.602 265.144 265.664C264.083 267.655 262.689 270.443 260.963 274.027C259.237 277.478 257.246 280.995 254.99 284.579C252.733 288.163 250.277 291.017 247.623 293.141C245.632 294.734 243.508 295.531 241.251 295.531C238.596 295.531 236.605 294.933 235.278 293.739C233.95 292.411 232.888 290.553 232.092 288.163C227.844 293.871 223.132 298.584 217.955 302.3C212.778 306.017 207.469 307.875 202.026 307.875ZM198.243 301.703C199.703 301.703 201.694 299.778 204.216 295.929C206.738 292.079 209.46 287.168 212.38 281.195C215.3 275.089 218.154 268.916 220.942 262.677C221.473 261.615 222.336 259.691 223.53 256.903C224.725 253.983 225.986 250.797 227.313 247.346C228.641 243.762 229.769 240.31 230.698 236.992C231.627 233.673 232.092 231.019 232.092 229.027C232.092 226.771 231.428 225.643 230.101 225.643C228.906 225.643 227.38 226.837 225.521 229.227C223.663 231.483 221.605 234.47 219.349 238.187C217.092 241.903 214.902 245.886 212.778 250.133C210.654 254.381 208.796 258.363 207.203 262.08C205.61 265.797 203.951 269.978 202.225 274.624C200.5 279.27 199.04 283.717 197.845 287.964C196.783 292.079 196.252 295.398 196.252 297.92C196.252 300.442 196.916 301.703 198.243 301.703ZM278.34 307.875C270.243 307.875 263.54 305.486 258.23 300.707C252.92 295.929 250.266 289.292 250.266 280.796C250.266 277.876 250.597 274.823 251.261 271.637C251.925 268.451 252.987 265.73 254.447 263.474C255.907 261.217 257.832 260.089 260.221 260.089C261.681 260.089 262.743 260.553 263.407 261.483C265 258.43 266.725 255.377 268.584 252.323C270.442 249.27 272.301 246.151 274.159 242.965C276.283 239.514 278.738 235.731 281.526 231.616C284.446 227.368 287.765 223.651 291.482 220.466C295.198 217.147 299.247 215.289 303.627 214.891C304.158 214.758 304.689 214.691 305.22 214.691C305.884 214.691 306.481 214.691 307.012 214.691C308.472 214.691 309.999 214.758 311.592 214.891C313.185 215.023 314.379 215.156 315.176 215.289C315.441 215.422 315.64 215.82 315.773 216.483C315.906 217.147 315.574 217.479 314.778 217.479C314.247 217.479 313.185 217.877 311.592 218.674C309.999 219.337 309.07 220.997 308.804 223.651C308.539 232.943 307.941 242.235 307.012 251.527C306.216 260.819 304.955 268.584 303.229 274.823C302.433 278.009 301.172 281.46 299.446 285.177C297.72 288.894 295.663 292.212 293.274 295.132C290.884 298.053 288.362 300.044 285.707 301.106C288.362 301.106 291.15 300.309 294.07 298.716C297.123 296.991 299.911 294.933 302.433 292.544C305.087 290.155 307.079 288.031 308.406 286.172C311.326 282.057 313.981 277.743 316.37 273.23C318.893 268.584 320.751 265 321.946 262.478C322.344 261.814 322.808 261.483 323.339 261.483C324.003 261.483 324.6 261.881 325.131 262.677C325.662 263.474 325.928 264.337 325.928 265.266C325.928 265.531 325.861 265.797 325.729 266.062C325.729 266.328 325.662 266.593 325.53 266.859C323.14 271.637 320.485 276.482 317.565 281.394C314.778 286.172 311.525 290.619 307.809 294.734C304.092 298.716 299.844 301.902 295.066 304.291C290.287 306.681 284.712 307.875 278.34 307.875ZM265.398 295.331C266.858 295.331 268.318 294.867 269.778 293.938C271.239 293.009 272.433 291.548 273.362 289.557C275.354 285.177 277.146 280.133 278.738 274.425C280.331 268.717 281.725 263.075 282.92 257.5C284.114 251.793 285.11 246.748 285.906 242.368C286.836 237.855 287.499 234.603 287.898 232.611C285.906 235.001 283.451 238.386 280.53 242.766C277.743 247.147 275.022 251.527 272.367 255.907C269.845 260.288 267.92 263.806 266.593 266.46C266.725 269.513 265.531 272.235 263.009 274.624C260.487 277.013 258.296 279.469 256.438 281.991V284.181C256.438 284.712 256.438 285.376 256.438 286.172C256.571 286.969 256.703 287.699 256.836 288.363C257.5 290.486 258.628 292.212 260.221 293.539C261.947 294.734 263.672 295.331 265.398 295.331ZM334.024 308.075C329.246 308.075 324.932 306.747 321.082 304.092C317.233 301.305 315.308 296.858 315.308 290.752C315.308 285.973 316.237 280.133 318.096 273.23C319.954 266.328 322.41 259.292 325.463 252.124C328.516 244.824 331.834 238.253 335.418 232.412H326.856C326.06 232.412 325.662 232.081 325.662 231.417C325.662 230.886 325.994 230.289 326.657 229.625C327.321 228.828 328.117 228.297 329.047 228.032C331.17 227.368 333.892 226.174 337.21 224.448C340.661 222.59 344.245 220.466 347.962 218.076C351.679 215.687 355.197 213.298 358.515 210.908C361.834 208.519 364.488 206.462 366.48 204.736C367.674 203.674 368.935 202.944 370.263 202.546C371.723 202.147 373.117 201.948 374.444 201.948C376.701 201.948 378.426 202.347 379.621 203.143C380.816 203.939 380.816 204.736 379.621 205.532C378.559 206.196 377.099 207.855 375.24 210.51C373.382 213.165 371.457 216.085 369.466 219.271C367.608 222.457 365.949 225.311 364.488 227.833H379.621C379.886 227.833 380.019 228.032 380.019 228.43C380.019 229.094 379.754 229.957 379.223 231.019C378.692 231.948 378.161 232.412 377.63 232.412H361.9C359.245 237.058 356.325 242.368 353.139 248.341C349.953 254.315 346.9 260.421 343.98 266.659C341.192 272.766 338.869 278.473 337.011 283.783C335.153 288.96 334.224 293.075 334.224 296.128C334.224 299.446 335.75 301.106 338.803 301.106C341.989 301.106 345.573 299.579 349.555 296.526C352.874 293.739 355.993 290.287 358.913 286.172C361.701 282.323 364.157 278.341 366.28 274.226C368.537 270.111 370.395 266.593 371.856 263.673C372.386 262.744 373.117 262.279 374.046 262.279C374.975 262.279 375.705 262.677 376.236 263.474C376.9 264.137 376.966 265 376.435 266.062C374.444 270.044 371.922 274.69 368.869 280C365.816 285.31 362.564 290.155 359.112 294.535C356.325 297.986 353.604 300.641 350.949 302.499C348.427 304.225 345.706 305.553 342.785 306.482C339.998 307.544 337.077 308.075 334.024 308.075ZM401.504 308.075C394.867 308.075 390.155 306.216 387.368 302.499C384.713 298.65 383.385 294.27 383.385 289.358C383.385 284.978 384.314 280.133 386.173 274.823C388.031 269.381 390.288 263.938 392.943 258.496C395.73 252.921 398.584 247.611 401.504 242.567C404.425 237.523 406.947 233.01 409.071 229.027C407.743 229.293 406.349 229.558 404.889 229.824C403.562 229.957 402.234 230.023 400.907 230.023C397.854 230.023 395.199 229.558 392.943 228.629C392.81 229.16 392.611 229.691 392.345 230.222C392.08 230.753 391.881 231.151 391.748 231.417C388.828 239.116 385.708 246.616 382.39 253.916C379.071 261.217 376.085 267.19 373.43 271.836C371.704 274.889 370.178 276.416 368.85 276.416C367.788 276.416 367.257 275.619 367.257 274.027C367.257 272.965 367.523 271.969 368.054 271.04C370.709 265.996 373.762 259.624 377.213 251.925C380.797 244.226 384.049 236.395 386.969 228.43C387.102 228.165 387.235 227.7 387.368 227.036C387.633 226.24 387.832 225.576 387.965 225.045C386.239 222.921 385.376 220.134 385.376 216.683C385.376 214.426 385.974 212.236 387.168 210.112C388.363 207.855 390.221 206.727 392.744 206.727C394.204 206.727 395.531 207.258 396.726 208.32C398.053 209.382 398.717 211.041 398.717 213.298C398.717 215.952 397.788 218.873 395.929 222.059C396.195 222.988 397.058 223.718 398.518 224.249C399.978 224.647 401.571 224.846 403.296 224.846C405.155 224.846 406.947 224.581 408.672 224.05C410.531 223.519 411.792 222.722 412.456 221.66C413.65 220.067 415.641 219.271 418.429 219.271C420.818 219.271 423.473 219.935 426.393 221.262C427.986 222.059 429.314 223.253 430.376 224.846C431.437 226.306 431.968 228.165 431.968 230.421C431.968 234.403 430.243 239.448 426.792 245.554C423.075 252.456 419.225 259.89 415.243 267.854C411.394 275.819 408.54 282.987 406.681 289.358C406.15 291.084 405.885 292.743 405.885 294.336C405.885 297.123 406.748 298.517 408.473 298.517C410.332 298.517 412.389 297.323 414.646 294.933C417.035 292.544 419.358 289.69 421.615 286.371C424.535 282.124 427.19 277.611 429.579 272.832C432.101 268.053 433.827 264.735 434.756 262.876C435.154 262.08 435.752 261.682 436.548 261.682C437.344 261.682 438.074 262.146 438.738 263.075C439.535 263.872 439.667 264.801 439.136 265.863C437.411 269.447 435.021 274.093 431.968 279.801C428.915 285.376 425.464 290.619 421.615 295.531C418.827 299.115 415.774 302.101 412.456 304.491C409.137 306.88 405.487 308.075 401.504 308.075Z" fill="#F63E7C"/>
<path d="M263.128 125.992C263.128 127.809 261.656 129.28 259.84 129.28C258.024 129.28 256.552 127.809 256.552 125.992C256.552 124.177 258.024 122.704 259.84 122.704C261.656 122.704 263.128 124.177 263.128 125.992Z" stroke="#262626" stroke-width="0.0340055"/>
</g>
<defs>
<linearGradient id="paint0_linear_1003_2" x1="256" y1="0" x2="256" y2="512" gradientUnits="userSpaceOnUse">
<stop stop-color="#F9851B"/>
<stop offset="1" stop-color="white" stop-opacity="0"/>
</linearGradient>
<clipPath id="clip0_1003_2">
<rect width="512" height="512" fill="white"/>
</clipPath>
</defs>
</svg>
